# xmcd
#
# Track frame offsets:
#	192
#	23755
#	44517
#	62545
#	80407
#	100760
#	113770
#	135110
#	153105
#	171835
#
# Disc length: 2455 seconds
#
# Revision: 1
# Processed by: cddbd v1.5.2PL0 Copyright (c) Steve Scherf et al.
# Submitted via: audiograbber 1.83.01
#
DISCID=6c09950a
DTITLE=NO coMMent - Szerelem dönget a ház kapuján
DYEAR=1993
DGENRE=Pop
TTITLE0=Szerelem dönget a ház kapuján
TTITLE1=Újrakezdõ
TTITLE2=Drágám
TTITLE3=Egy lány az éjszakában
TTITLE4=Nem kalandoznék
TTITLE5=Valami mindig közbeszólt
TTITLE6=St. Jupát
TTITLE7=Tükörfalak
TTITLE8=Még (Milyen kár is, hogy nem lesz mindig igy)
TTITLE9=Ünnep jön
EXTD=
EXTT0=
EXTT1=
EXTT2=
EXTT3=
EXTT4=
EXTT5=
EXTT6=
EXTT7=
EXTT8=
EXTT9=
PLAYORDER=
